<?xml version="1.0" standalone="no"?>
<!DOCTYPE svg PUBLIC "-//W3C//DTD SVG 20010904//EN"
 "http://www.w3.org/TR/2001/REC-SVG-20010904/DTD/svg10.dtd">
<svg version="1.0" xmlns="http://www.w3.org/2000/svg"
 width="500.000000pt" height="500.000000pt" viewBox="0 0 500.000000 500.000000"
 preserveAspectRatio="xMidYMid meet">
<metadata>
Created by potrace 1.14, written by Peter Selinger 2001-2017
</metadata>
<g transform="translate(0.000000,500.000000) scale(0.100000,-0.100000)"
fill="#000000" stroke="none">
<path d="M0 2500 l0 -2500 2500 0 2500 0 0 2500 0 2500 -2500 0 -2500 0 0
-2500z m2958 663 l242 -4 0 -214 0 -215 -236 0 -236 0 5 -42 c3 -24 8 -54 12
-68 8 -32 -27 -80 -59 -80 -38 0 -66 28 -66 65 0 19 5 37 10 40 6 4 10 73 10
175 l0 169 153 4 c83 2 166 8 184 12 24 5 35 3 52 -14 45 -45 8 -120 -52 -106
-18 4 -80 9 -139 12 l-108 4 0 -40 0 -41 190 0 190 0 0 125 0 125 -189 0
c-116 0 -192 -4 -196 -10 -10 -16 -67 -12 -87 7 -46 41 -1 124 57 105 11 -3
129 -8 263 -9z m-418 -296 l0 -292 95 -95 95 -95 0 -277 0 -278 -230 0 -230 0
0 175 c0 111 -4 183 -12 200 -24 52 27 103 85 83 33 -12 44 -48 28 -93 -6 -17
-11 -86 -11 -153 l0 -122 140 0 140 0 0 213 0 212 -90 90 -90 89 -2 271 -3
270 -280 0 -280 0 -3 -122 -3 -123 191 0 190 0 0 41 0 40 -107 -4 c-60 -3
-122 -8 -140 -12 -24 -5 -35 -3 -52 14 -45 45 -8 120 52 106 18 -4 101 -10
185 -12 l152 -4 0 -247 0 -247 90 -90 90 -90 0 -101 c0 -64 5 -114 14 -135 33
-81 -56 -136 -107 -67 -20 27 -20 29 -4 63 11 24 17 61 17 113 l0 77 -95 95
-95 95 0 137 0 138 -235 0 -235 0 0 215 0 215 370 0 370 0 0 -293z"/>
</g>
</svg>
